<?xml version="1.0" encoding="UTF-8"?><svg id="Layer_1" xmlns="http://www.w3.org/2000/svg" viewBox="0 0 186.78 193.79"><defs><style>.cls-1{fill:#2c5ea9;stroke-width:0px;}</style></defs><path class="cls-1" d="M135.39,2.33c-30.43-8.05-67.09,6.05-92.54,22.54C15.86,42.3-19.9,78.49,13.52,107.75c6.39,5.65,14.94,10.72,24.29,14.59-3.56,7.96-4.83,16.83-2.79,25.81,2.1,10.09,8.49,17.87,18.33,21.14,10.22,3.39,21.26,2.02,31.42.36.9-.14,3.06-.48,3.94-.58.67-.06,1.33-.14,1.98-.23.54,2.2,1.22,4.36,2.04,6.45,5.67,13.94,22.02,20.44,36.16,18,13.33-2.04,24.42-11,30.82-22.47,10.11-18.08,10.35-39.51,7.86-59.44l-10.26,1.29c.43,3.69.75,7.39.92,11.07,1.31,22.64-4.99,54.01-31.05,58.48-9.45,1.48-20.13-2.32-23.83-11.3-.44-1.13-.8-2.3-1.12-3.46-.12-.44-.24-.89-.35-1.34,2.24-.78,4.44-1.66,6.62-2.64,5.76-2.72,11.8-6.34,15.05-12.2,2.76-5.12,2.11-10.63-1.15-15.35-5.07-7.32-14.23-8.09-21.16-3.3-4.25,2.88-7.17,6.95-9.13,11.49-1.74,4.05-2.59,8.35-2.74,12.69-.64.08-1.28.15-1.92.2-1.15.09-3.42.49-4.6.64-11.99,1.82-30.69,4.66-35.15-9.91-2.25-7.46-1.19-14.79,1.98-21.25,11.57,3.3,23.5,4.6,33.55,2.88,8.69-1.55,16.72-6.98,17.03-16.65.42-9.09-4.38-17.36-13.39-19.71-9.34-2.41-18.89.82-26.85,5.28-5.79,3.28-11.02,7.66-15.24,12.81-15.83-6.06-30.11-16.18-31.63-28.26-.57-9.61,5.89-18.72,12-25.82,20.93-23.01,55.01-40.66,86.02-43.3,6.11-.44,12.14-.26,18.11.95,14.3,3.05,24.86,14.56,31.89,27.19,6.84,12.25,11.42,26.11,14.27,39.9l.24,1.26s11.07-1.51,11.07-1.51c-4.23-30.4-19-69.69-51.38-79.18ZM111.19,141.49c.33.13.72.34.99.65.17.12.31.4.49.57.12.22.25.44.39.65.04.12.12.29.17.4.09.17.05.27.15.43-.03.11.05.22.02.32,0,.05,0,.09,0,.14-.48,2.24-3.28,4.2-5.47,5.58-2.04,1.23-4.22,2.29-6.48,3.21.58-3.05,1.72-5.93,3.59-8.36,1.52-1.91,3.85-3.97,6.14-3.59ZM66.34,109.34c4.21-2.35,8.75-4.1,13.41-4.33,3.11-.12,6.4.55,7.25,3.7.39,1.41.61,3.11.25,4.5-.93,2.15-3.97,2.92-6.44,3.46-5.85,1.1-13.97.5-22.55-1.47,2.45-2.26,5.18-4.24,8.08-5.87Z"/></svg>